# xmcd
#
# Track frame offsets:
#	150
#	22362
#	34237
#	54037
#	70662
#	88987
#	113162
#	127662
#	149000
#	170475
#	189025
#	201775
#	215900
#	226612
#	252000
#	259487
#
# Disc length: 3680
#
# Revision: 1
# Processed by: cddbd v1.5.1PL0 Copyright (c) Steve Scherf et al.
# Submitted via: CDex 1.51
# Normalized: r0:DSETVAR1,TDELIM( - )
#
DISCID=e40e5e10
DTITLE=Various Artist - Beauty Of Voices
DYEAR=1900
DGENRE=Jazz
TTITLE0=akiko - The Gift
TTITLE1=Ann Sally - Haven't We Met
TTITLE2=Helen Merrill - You'd Be So Nice To Come Home To
TTITLE3=Laura Fugi - Don't It Make My Brown Eyes Blue
TTITLE4=Sarah Vaughan - Lullaby Of Birdland
TTITLE5=Diane Schuur - New York State Of Mind
TTITLE6=Billie Holiday - As Time Goes By
TTITLE7=Diana Krall - The Look Of Love
TTITLE8=Ella Fitzgerald - Mack The Knife
TTITLE9=Lizz Wright - Blue Rose
TTITLE10=Astrud Gilberto - The Girl From Ipanema
TTITLE11=Cassandra Wilson - Blue Skies
TTITLE12=Jane Birkin - L'aquoiboniste
TTITLE13=Shirley Horn - Here's To Life
TTITLE14=Tokyo Grand Orchestra Featuring Bebe - I Wanna Be Loved By You-DOLL House Version-
TTITLE15=Hayley Westenra - Amazing Grace
EXTD=
EXTT0=
EXTT1=
EXTT2=
EXTT3=
EXTT4=
EXTT5=
EXTT6=
EXTT7=
EXTT8=
EXTT9=
EXTT10=
EXTT11=
EXTT12=
EXTT13=
EXTT14=
EXTT15=
PLAYORDER=
